<?xml version="1.0" encoding="utf-8"?>
<!-- Generator: Adobe Illustrator 16.0.0, SVG Export Plug-In . SVG Version: 6.00 Build 0)  -->
<!DOCTYPE svg PUBLIC "-//W3C//DTD SVG 1.1//EN" "http://www.w3.org/Graphics/SVG/1.1/DTD/svg11.dtd">
<svg version="1.1" xmlns="http://www.w3.org/2000/svg" xmlns:xlink="http://www.w3.org/1999/xlink" x="0px" y="0px"
	 width="120.237px" height="37.945px" viewBox="0 0 120.237 37.945" enable-background="new 0 0 120.237 37.945"
	 xml:space="preserve">
<g id="Guides_For_Artboard" display="none">
</g>
<g id="Layer_1">
	<g>
		<path fill-rule="evenodd" clip-rule="evenodd" fill="#24395C" d="M8.675,12.676h2.008c1.104,0,2.008,0.903,2.008,2.008v3.833
			c8.701-2.727,17.419,1.372,19.76,9.465c0.148,0.515,0.269,1.034,0.359,1.556c-0.383-0.775-0.824-1.506-1.317-2.188
			c-2.298,6.187-8.254,10.595-15.24,10.595C7.277,37.945,0,30.668,0,21.692S7.277,5.439,16.253,5.439
			c0.982,0,1.944,0.087,2.878,0.254V9.16c-0.925-0.211-1.888-0.324-2.878-0.324c-7.1,0-12.855,5.756-12.855,12.856
			c0,0.947,0.103,1.871,0.297,2.76c1.388-1.619,3.067-3.038,4.98-4.157V12.676L8.675,12.676z M24.516,7.694v4.149
			c2.689,2.259,4.44,5.601,4.583,9.354c1.245,1.172,2.259,2.539,3.017,4.052c0.255-1.146,0.391-2.335,0.391-3.557
			C32.506,15.732,29.298,10.523,24.516,7.694L24.516,7.694z M12.691,22.17v7.971c0,1.105-0.904,2.009-2.008,2.009H8.775
			c2.107,1.509,4.688,2.397,7.478,2.397c2.79,0,5.371-0.889,7.478-2.397h-1.907c-1.105,0-2.008-0.903-2.008-2.009v-9.072
			c-2.298-0.134-4.7,0.206-7.078,1.084L12.691,22.17L12.691,22.17z M23.831,21.817v10.261c2.475-1.81,4.278-4.481,4.969-7.574
			C27.333,23.312,25.649,22.404,23.831,21.817L23.831,21.817z M4.861,27.655c0.918,1.75,2.229,3.263,3.813,4.422v-7.833
			C7.244,25.215,5.964,26.368,4.861,27.655z"/>
		<path fill-rule="evenodd" clip-rule="evenodd" fill="#F4A943" d="M21.823,5.005h2.008v12.977
			c-0.999-0.362-2.037-0.625-3.095-0.789c-0.307-0.047-0.614-0.086-0.921-0.117V7.014C19.815,5.909,20.718,5.005,21.823,5.005z"/>
		<path fill-rule="evenodd" clip-rule="evenodd" fill="#F4A943" d="M19.815,0h2.008c1.104,0,2.008,0.904,2.008,2.008v2.008h-4.016V0
			z"/>
	</g>
	<g>
		
			<rect x="39.101" y="19.917" fill-rule="evenodd" clip-rule="evenodd" fill="#24395C" stroke="#24395C" stroke-width="0.5" stroke-miterlimit="2.6131" width="80.887" height="11.093"/>
		<g>
			<polygon fill-rule="evenodd" clip-rule="evenodd" fill="#24395C" points="110.942,17.646 110.942,5.727 114.772,5.727 
				114.772,14.48 119.978,14.48 119.978,17.646 			"/>
			<path fill-rule="evenodd" clip-rule="evenodd" fill="#24395C" d="M97.398,5.727h3.83v7.347c0,0.683,0.141,1.166,0.425,1.453
				c0.282,0.291,0.755,0.434,1.418,0.434c0.646,0,1.11-0.141,1.387-0.425c0.279-0.282,0.417-0.771,0.417-1.462V5.727h3.83v7.648
				c0,1.495-0.481,2.633-1.445,3.42c-0.962,0.788-2.359,1.183-4.188,1.183c-1.841,0-3.244-0.395-4.217-1.186
				c-0.97-0.79-1.456-1.928-1.456-3.417V5.727z"/>
			<polygon fill-rule="evenodd" clip-rule="evenodd" fill="#24395C" points="86.958,17.646 86.958,5.727 95.976,5.727 95.976,8.728 
				90.787,8.728 90.787,10.568 94.915,10.568 94.915,13.452 90.787,13.452 90.787,17.646 			"/>
			<path fill-rule="evenodd" clip-rule="evenodd" fill="#24395C" d="M74.727,17.646V5.727h4.903c1.086,0,1.945,0.063,2.578,0.19
				c0.636,0.127,1.166,0.329,1.592,0.611c0.55,0.373,0.961,0.834,1.229,1.384c0.271,0.55,0.406,1.202,0.406,1.959
				c0,1.332-0.396,2.354-1.183,3.064C83.465,13.646,82.327,14,80.844,14h-2.288v3.647H74.727L74.727,17.646z M78.556,11.082h1.229
				c0.796,0,1.329-0.088,1.6-0.268c0.269-0.177,0.403-0.492,0.403-0.948c0-0.459-0.13-0.777-0.387-0.953
				c-0.26-0.18-0.798-0.269-1.616-0.269h-1.229V11.082z"/>
			<polygon fill-rule="evenodd" clip-rule="evenodd" fill="#24395C" points="64.131,17.646 64.131,5.727 67.96,5.727 67.96,14.48 
				73.165,14.48 73.165,17.646 			"/>
			<polygon fill-rule="evenodd" clip-rule="evenodd" fill="#F4A943" points="52.579,8.579 52.579,5.727 62.108,5.727 62.108,8.579 
				56.408,8.579 			"/>
			<polygon fill-rule="evenodd" clip-rule="evenodd" fill="#24395C" points="52.579,17.646 52.579,10.17 56.408,10.17 61.227,10.17 
				61.227,12.905 56.408,12.905 56.408,14.746 62.343,14.746 62.343,17.646 			"/>
			<polygon fill-rule="evenodd" clip-rule="evenodd" fill="#24395C" points="39.101,17.646 39.101,5.727 42.931,5.727 42.931,9.772 
				46.494,9.772 46.494,5.727 50.324,5.727 50.324,17.646 46.494,17.646 46.494,13.021 42.931,13.021 42.931,17.646 			"/>
		</g>
		<g>
			<path fill-rule="evenodd" clip-rule="evenodd" fill="#F3A941" d="M40.834,36.969V35.52l-1.443-2.469h1.396l0.677,1.335
				l0.682-1.335h1.354l-1.406,2.469v1.449H40.834L40.834,36.969z M45.548,35.014c0,0.371,0.062,0.643,0.186,0.817
				c0.125,0.173,0.319,0.261,0.583,0.261s0.456-0.086,0.579-0.26c0.122-0.173,0.184-0.445,0.184-0.818
				c0-0.374-0.062-0.647-0.184-0.82c-0.123-0.174-0.315-0.26-0.579-0.26s-0.458,0.087-0.583,0.261
				C45.609,34.369,45.548,34.641,45.548,35.014L45.548,35.014z M44.277,35.013c0-0.639,0.183-1.143,0.547-1.512
				s0.862-0.554,1.491-0.554c0.628,0,1.124,0.185,1.487,0.554c0.364,0.369,0.546,0.873,0.546,1.512c0,0.637-0.182,1.141-0.546,1.511
				c-0.363,0.369-0.859,0.555-1.487,0.555c-0.629,0-1.127-0.186-1.491-0.555C44.46,36.154,44.277,35.65,44.277,35.013L44.277,35.013
				z M49.637,33.051h1.259v2.415c0,0.225,0.046,0.383,0.14,0.478c0.093,0.096,0.248,0.143,0.466,0.143
				c0.213,0,0.365-0.046,0.456-0.14c0.092-0.093,0.138-0.254,0.138-0.48v-2.415h1.259v2.514c0,0.491-0.158,0.866-0.476,1.125
				c-0.316,0.259-0.775,0.389-1.377,0.389c-0.604,0-1.066-0.13-1.386-0.39c-0.318-0.26-0.479-0.634-0.479-1.124V33.051z"/>
			<path fill-rule="evenodd" clip-rule="evenodd" fill="#F3A941" d="M57.428,36.969v-2.888H56.3v-1.03h3.515v1.03h-1.128v2.888
				H57.428L57.428,36.969z M60.945,36.969v-3.918h1.259v1.33h1.172v-1.33h1.259v3.918h-1.259v-1.521h-1.172v1.521H60.945
				L60.945,36.969z M66.12,36.969v-3.918h1.28v3.918H66.12L66.12,36.969z M68.891,36.969v-3.918h1.192l1.101,1.822
				c0.033,0.052,0.069,0.124,0.108,0.218c0.038,0.094,0.077,0.208,0.12,0.341c-0.011-0.069-0.018-0.146-0.023-0.229
				c-0.006-0.082-0.008-0.184-0.008-0.303v-1.849h1.198v3.918h-1.198l-1.1-1.809c-0.034-0.053-0.071-0.129-0.111-0.226
				c-0.04-0.099-0.08-0.21-0.121-0.336c0.013,0.069,0.021,0.142,0.026,0.217c0.006,0.075,0.008,0.182,0.008,0.318v1.835H68.891
				L68.891,36.969z M74.048,36.969v-3.918h1.248v1.298l1.127-1.298h1.461l-1.398,1.444l1.579,2.474h-1.499L75.607,35.4l-0.312,0.321
				v1.248H74.048z"/>
		</g>
		<g>
			<path fill-rule="evenodd" clip-rule="evenodd" fill="#24395C" d="M81.437,36.969l-0.944-3.918h1.227l0.426,2.529l0.495-2.529
				h1.041l0.474,2.529l0.412-2.529h1.195l-0.932,3.918h-1.248l-0.446-2.349l-0.43,2.349H81.437L81.437,36.969z M86.902,36.969
				v-3.918h3.133v0.938h-1.874v0.522h1.584v0.899h-1.584v0.605h1.951v0.953H86.902z"/>
			<path fill-rule="evenodd" clip-rule="evenodd" fill="#24395C" d="M95.756,35.451h1.193c-0.036,0.516-0.218,0.917-0.546,1.201
				s-0.773,0.427-1.334,0.427c-0.627,0-1.122-0.185-1.481-0.553c-0.361-0.367-0.541-0.873-0.541-1.513
				c0-0.639,0.178-1.143,0.535-1.512s0.843-0.554,1.459-0.554c0.567,0,1.014,0.137,1.339,0.411s0.508,0.667,0.547,1.177h-1.204
				c-0.019-0.201-0.083-0.352-0.194-0.454s-0.269-0.153-0.472-0.153c-0.247,0-0.431,0.09-0.555,0.271s-0.186,0.452-0.186,0.815
				c0,0.356,0.065,0.627,0.197,0.81c0.131,0.183,0.323,0.273,0.577,0.273c0.195,0,0.35-0.056,0.464-0.168
				C95.669,35.818,95.736,35.659,95.756,35.451L95.756,35.451z M99.442,34.735h0.572c0.2,0,0.338-0.027,0.415-0.081
				c0.076-0.054,0.114-0.148,0.114-0.284c0-0.139-0.038-0.235-0.114-0.288C100.353,34.027,100.204,34,99.982,34h-0.54V34.735
				L99.442,34.735z M98.2,36.969v-3.918h1.875c0.588,0,1.007,0.088,1.258,0.264c0.251,0.175,0.377,0.463,0.377,0.864
				c0,0.239-0.052,0.438-0.154,0.596s-0.262,0.283-0.477,0.375c0.219,0.046,0.378,0.138,0.477,0.272
				c0.1,0.136,0.152,0.335,0.16,0.597l0.021,0.546c0,0.004,0.001,0.009,0.002,0.013c0.005,0.156,0.043,0.238,0.112,0.245v0.146
				h-1.271c-0.023-0.095-0.041-0.176-0.053-0.246s-0.018-0.124-0.018-0.163v-0.392c0-0.202-0.04-0.345-0.12-0.427
				c-0.078-0.083-0.217-0.124-0.414-0.124h-0.534v1.352H98.2L98.2,36.969z M103.081,36.969v-3.918h3.133v0.938h-1.874v0.522h1.584
				v0.899h-1.584v0.605h1.951v0.953H103.081L103.081,36.969z M108.833,35.628h0.79l-0.391-1.356L108.833,35.628L108.833,35.628z
				 M107.214,36.969l1.379-3.918h1.275l1.379,3.918h-1.248l-0.147-0.518h-1.248l-0.151,0.518H107.214L107.214,36.969z
				 M112.956,36.969v-2.888h-1.128v-1.03h3.515v1.03h-1.128v2.888H112.956L112.956,36.969z M116.474,36.969v-3.918h3.133v0.938
				h-1.874v0.522h1.584v0.899h-1.584v0.605h1.951v0.953H116.474z"/>
		</g>
		<path fill-rule="evenodd" clip-rule="evenodd" fill="#FFFFFF" d="M43.992,28.886V22.03h2.229v6.856H43.992L43.992,28.886z
			 M52.294,28.886V22.03h2.077l1.915,3.188c0.059,0.091,0.122,0.218,0.188,0.381c0.066,0.166,0.136,0.364,0.21,0.597
			c-0.02-0.121-0.031-0.255-0.041-0.401c-0.01-0.145-0.015-0.322-0.015-0.53V22.03h2.087v6.856h-2.087l-1.914-3.166
			c-0.059-0.092-0.123-0.225-0.193-0.395c-0.069-0.171-0.139-0.367-0.21-0.588c0.022,0.123,0.036,0.248,0.046,0.38
			s0.014,0.318,0.014,0.557v3.212H52.294L52.294,28.886z M64.431,26.75h2.134c0.059,0.247,0.165,0.426,0.319,0.533
			c0.153,0.108,0.385,0.163,0.689,0.163c0.255,0,0.457-0.045,0.603-0.133c0.147-0.089,0.22-0.21,0.22-0.365
			c0-0.248-0.307-0.448-0.92-0.604c-0.123-0.03-0.219-0.055-0.283-0.07c-0.503-0.13-0.902-0.25-1.201-0.355
			c-0.298-0.107-0.515-0.209-0.65-0.301c-0.263-0.189-0.46-0.416-0.591-0.681c-0.132-0.264-0.196-0.565-0.196-0.904
			c0-0.68,0.255-1.214,0.764-1.604c0.509-0.388,1.21-0.581,2.101-0.581c0.878,0,1.567,0.186,2.07,0.558s0.787,0.904,0.853,1.598
			h-2.078c-0.033-0.202-0.123-0.354-0.266-0.452c-0.144-0.1-0.35-0.149-0.615-0.149c-0.233,0-0.407,0.038-0.523,0.116
			c-0.113,0.078-0.17,0.195-0.17,0.354c0,0.226,0.298,0.416,0.897,0.567c0.054,0.016,0.094,0.027,0.12,0.033
			c0.087,0.021,0.219,0.055,0.396,0.097c0.794,0.202,1.313,0.385,1.557,0.55c0.303,0.202,0.524,0.432,0.663,0.688
			c0.14,0.258,0.209,0.563,0.209,0.912c0,0.758-0.265,1.34-0.791,1.745c-0.526,0.407-1.28,0.61-2.264,0.61
			c-0.906,0-1.624-0.203-2.153-0.61C64.793,28.061,64.495,27.489,64.431,26.75L64.431,26.75z M76.29,28.886V22.03h2.229v6.856H76.29
			L76.29,28.886z M89.667,28.886l-0.105-0.592c-0.248,0.265-0.546,0.46-0.895,0.589c-0.35,0.128-0.754,0.193-1.218,0.193
			c-0.977,0-1.745-0.322-2.308-0.966c-0.562-0.645-0.843-1.527-0.843-2.647c0-1.146,0.313-2.035,0.94-2.667
			c0.626-0.631,1.505-0.947,2.636-0.947c0.888,0,1.606,0.222,2.149,0.667c0.546,0.443,0.87,1.069,0.971,1.879h-2.077
			c-0.084-0.273-0.218-0.481-0.404-0.625c-0.188-0.143-0.419-0.214-0.694-0.214c-0.438,0-0.767,0.168-0.983,0.507
			c-0.219,0.338-0.327,0.842-0.327,1.513c0,0.62,0.108,1.084,0.328,1.391s0.554,0.461,1.001,0.461c0.321,0,0.595-0.075,0.817-0.224
			c0.225-0.151,0.362-0.354,0.416-0.605h-0.988v-1.469h2.998v3.757H89.667L89.667,28.886z M97.061,28.886V22.03h2.191v2.327h2.04
			V22.03h2.19v6.856h-2.19v-2.66h-2.04v2.66H97.061L97.061,28.886z M110.942,28.886v-5.054h-1.963V22.03h6.118v1.803h-1.964v5.054
			H110.942z"/>
	</g>
</g>
</svg>
